<?xml version="1.0" encoding="UTF-8"?>
<!DOCTYPE svg PUBLIC "-//W3C//DTD SVG 1.1//EN" "http://www.w3.org/Graphics/SVG/1.1/DTD/svg11.dtd">
<svg xmlns="http://www.w3.org/2000/svg" version="1.1" width="941px" height="964px" style="shape-rendering:geometricPrecision; text-rendering:geometricPrecision; image-rendering:optimizeQuality; fill-rule:evenodd; clip-rule:evenodd" xmlns:xlink="http://www.w3.org/1999/xlink">
<g><path style="opacity:0.943" fill="#5ee4c4" d="M 268.5,53.5 C 272.934,60.1844 277.267,67.0177 281.5,74C 289.094,73.2813 296.594,71.7813 304,69.5C 304.5,69.8333 305,70.1667 305.5,70.5C 300.297,76.5329 295.297,82.6996 290.5,89C 294.367,95.8993 298.367,102.733 302.5,109.5C 294.906,107.651 287.406,104.651 280,100.5C 274.656,106.676 269.156,112.676 263.5,118.5C 263.167,117.5 262.833,116.5 262.5,115.5C 263.665,108.525 264.165,101.525 264,94.5C 256.9,91.0335 249.733,87.7001 242.5,84.5C 250.324,81.8774 258.324,79.8774 266.5,78.5C 266.926,70.1443 267.593,61.811 268.5,53.5 Z"/></g>
<g><path style="opacity:0.942" fill="#5ee4c5" d="M 668.5,53.5 C 670.271,61.5999 671.271,69.9332 671.5,78.5C 679.676,79.8774 687.676,81.8774 695.5,84.5C 688.371,88.0667 681.038,91.0667 673.5,93.5C 673.686,101.211 674.352,108.877 675.5,116.5C 675.167,117.167 674.833,117.833 674.5,118.5C 668.844,112.676 663.344,106.676 658,100.5C 650.594,104.651 643.094,107.651 635.5,109.5C 639.633,102.733 643.633,95.8993 647.5,89C 642.556,82.385 637.223,76.0517 631.5,70C 639.809,71.4616 648.142,72.7949 656.5,74C 660.727,67.2793 664.727,60.446 668.5,53.5 Z"/></g>
<g><path style="opacity:0.942" fill="#5ee3c4" d="M 193.5,79.5 C 197.934,86.1844 202.267,93.0177 206.5,100C 214.05,99.0741 221.55,97.5741 229,95.5C 229.5,95.8333 230,96.1667 230.5,96.5C 225.297,102.533 220.297,108.7 215.5,115C 219.493,121.984 223.493,128.984 227.5,136C 219.716,133.452 212.049,130.285 204.5,126.5C 199.167,132.5 193.833,138.5 188.5,144.5C 188.167,143.167 187.833,141.833 187.5,140.5C 188.395,133.827 188.895,127.16 189,120.5C 181.398,117.19 173.898,113.69 166.5,110C 174.849,108.333 183.016,106.167 191,103.5C 191.625,95.4526 192.459,87.4526 193.5,79.5 Z"/></g>
<g><path style="opacity:0.942" fill="#5ee5c5" d="M 743.5,79.5 C 744.29,80.6085 744.79,81.9419 745,83.5C 745.771,90.4849 746.271,97.4849 746.5,104.5C 754.679,105.868 762.679,107.868 770.5,110.5C 763.267,113.7 756.1,117.033 749,120.5C 748.934,127.348 749.434,134.181 750.5,141C 750.167,142.167 749.833,143.333 749.5,144.5C 743.844,138.676 738.344,132.676 733,126.5C 725.594,130.651 718.094,133.651 710.5,135.5C 714.633,128.733 718.633,121.899 722.5,115C 717.703,108.7 712.703,102.533 707.5,96.5C 708,96.1667 708.5,95.8333 709,95.5C 716.45,97.5741 723.95,99.0741 731.5,100C 735.902,93.3579 739.902,86.5246 743.5,79.5 Z"/></g>
<g><path style="opacity:0.787" fill="#e0e2e5" d="M 329.5,181.5 C 330.404,182.209 330.737,183.209 330.5,184.5C 286.102,196.195 241.769,208.195 197.5,220.5C 197.166,364.836 196.166,508.836 194.5,652.5C 194.167,651.833 193.833,651.167 193.5,650.5C 193.167,506.498 193.5,362.498 194.5,218.5C 239.573,206.316 284.573,193.982 329.5,181.5 Z"/></g>
<g><path style="opacity:0.932" fill="#f4f4f5" d="M 612.5,181.5 C 658.02,194.297 703.687,206.63 749.5,218.5C 749.5,362.167 749.5,505.833 749.5,649.5C 748.609,650.11 747.609,650.443 746.5,650.5C 746.5,507.167 746.5,363.833 746.5,220.5C 701.388,208.769 656.388,196.769 611.5,184.5C 611.557,183.391 611.89,182.391 612.5,181.5 Z"/></g>
<g><path style="opacity:1" fill="#02102b" d="M 611.5,184.5 C 656.388,196.769 701.388,208.769 746.5,220.5C 746.5,363.833 746.5,507.167 746.5,650.5C 745.761,650.369 745.094,650.536 744.5,651C 746.134,651.494 747.801,651.66 749.5,651.5C 761.948,651.493 774.281,652.659 786.5,655C 792.118,659.086 793.951,664.586 792,671.5C 790.629,674.88 788.462,677.713 785.5,680C 768.912,690.453 752.245,700.62 735.5,710.5C 735.833,551.499 735.5,392.499 734.5,233.5C 731.904,232.518 729.238,231.851 726.5,231.5C 687.04,220.134 647.373,209.134 607.5,198.5C 608.636,193.76 609.97,189.093 611.5,184.5 Z"/></g>
<g><path style="opacity:1" fill="#02102b" d="M 330.5,184.5 C 332.538,188.941 334.204,193.607 335.5,198.5C 292.576,209.562 249.909,221.229 207.5,233.5C 207.166,394.003 206.166,554.336 204.5,714.5C 185.382,703.237 166.882,690.903 149,677.5C 148.209,676.255 147.709,674.922 147.5,673.5C 147.5,670.5 147.5,667.5 147.5,664.5C 148.636,660.072 151.302,656.905 155.5,655C 167.413,653.101 179.413,652.268 191.5,652.5C 192.5,652.5 193.5,652.5 194.5,652.5C 196.166,508.836 197.166,364.836 197.5,220.5C 241.769,208.195 286.102,196.195 330.5,184.5 Z"/></g>
<g><path style="opacity:1" fill="#2bbd9b" d="M 454.5,-0.5 C 465.5,-0.5 476.5,-0.5 487.5,-0.5C 542.501,8.00587 582.001,37.3392 606,87.5C 618.304,118.192 620.471,149.526 612.5,181.5C 611.89,182.391 611.557,183.391 611.5,184.5C 609.97,189.093 608.636,193.76 607.5,198.5C 606.226,199.189 606.226,200.023 607.5,201C 646.475,211.66 685.475,222.16 724.5,232.5C 727.067,233.475 729.733,234.142 732.5,234.5C 732.5,394.167 732.5,553.833 732.5,713.5C 724.511,719.833 715.844,725.167 706.5,729.5C 707.165,651.57 707.499,573.57 707.5,495.5C 707.5,417.497 706.833,339.83 705.5,262.5C 666.71,251.718 627.71,241.385 588.5,231.5C 587.387,230.054 587.22,228.387 588,226.5C 601.861,208.104 610.194,187.438 613,164.5C 616.955,121.935 605.622,84.2685 579,51.5C 541.474,12.5453 495.641,-2.95473 441.5,5C 434.893,6.4434 428.393,8.27674 422,10.5C 410.714,16.5572 399.548,22.7238 388.5,29C 333.878,72.9036 317.045,128.737 338,196.5C 350.571,226.739 370.737,250.572 398.5,268C 397.207,268.49 395.873,268.657 394.5,268.5C 384.642,262.646 375.642,255.646 367.5,247.5C 362.921,242.646 358.587,237.646 354.5,232.5C 354.53,231.503 354.03,230.836 353,230.5C 315.375,240.77 277.875,251.103 240.5,261.5C 238.883,262.038 237.216,262.371 235.5,262.5C 234.833,419.167 234.167,575.833 233.5,732.5C 224.491,727.665 215.824,722.332 207.5,716.5C 209.166,556.003 210.166,395.336 210.5,234.5C 252.564,223.15 294.564,211.483 336.5,199.5C 336.376,198.893 336.043,198.56 335.5,198.5C 334.204,193.607 332.538,188.941 330.5,184.5C 330.737,183.209 330.404,182.209 329.5,181.5C 316.792,117.77 335.792,65.937 386.5,26C 407.189,11.9399 429.855,3.10656 454.5,-0.5 Z"/></g>
<g><path style="opacity:1" fill="#3cc2a3" d="M 588.5,231.5 C 588.5,231.833 588.5,232.167 588.5,232.5C 583.822,237.179 579.489,242.179 575.5,247.5C 550.289,271.796 520.289,286.129 485.5,290.5C 476.5,290.5 467.5,290.5 458.5,290.5C 458.167,290.5 457.833,290.5 457.5,290.5C 434.857,287.952 413.857,280.619 394.5,268.5C 395.873,268.657 397.207,268.49 398.5,268C 370.737,250.572 350.571,226.739 338,196.5C 317.045,128.737 333.878,72.9036 388.5,29C 399.548,22.7238 410.714,16.5572 422,10.5C 428.393,8.27674 434.893,6.4434 441.5,5C 495.641,-2.95473 541.474,12.5453 579,51.5C 605.622,84.2685 616.955,121.935 613,164.5C 610.194,187.438 601.861,208.104 588,226.5C 587.22,228.387 587.387,230.054 588.5,231.5 Z"/></g>
<g><path style="opacity:1" fill="#44cfaf" d="M 455.5,5.5 C 516.008,1.83449 562.175,25.5012 594,76.5C 615.055,117.576 617.055,159.576 600,202.5C 577.222,249.928 539.722,277.428 487.5,285C 426.968,289.153 380.802,265.653 349,214.5C 327.945,173.424 325.945,131.424 343,88.5C 365.937,41.0591 403.437,13.3925 455.5,5.5 Z"/></g>
<g><path style="opacity:1" fill="#dfecea" d="M 607.5,198.5 C 647.373,209.134 687.04,220.134 726.5,231.5C 725.508,231.328 724.842,231.662 724.5,232.5C 685.475,222.16 646.475,211.66 607.5,201C 606.226,200.023 606.226,199.189 607.5,198.5 Z"/></g>
<g><path style="opacity:1" fill="#dae0e2" d="M 335.5,198.5 C 336.043,198.56 336.376,198.893 336.5,199.5C 294.564,211.483 252.564,223.15 210.5,234.5C 209.791,233.596 208.791,233.263 207.5,233.5C 249.909,221.229 292.576,209.562 335.5,198.5 Z"/></g>
<g><path style="opacity:1" fill="#6deace" d="M 458.5,8.5 C 495.025,6.47963 527.692,16.313 556.5,38C 565.69,46.1911 574.523,54.6911 583,63.5C 585.232,68.9647 588.232,73.9647 592,78.5C 617.773,131.771 613.439,182.438 579,230.5C 540.693,274.384 492.86,290.217 435.5,278C 387.017,262.851 355.184,231.017 340,182.5C 330.469,147.959 333.469,114.625 349,82.5C 365.375,54.1245 388.208,32.6245 417.5,18C 431.027,13.6994 444.694,10.5328 458.5,8.5 Z"/></g>
<g><path style="opacity:1" fill="#02153d" d="M 453.5,13.5 C 509.249,9.13029 552.749,29.797 584,75.5C 606.559,114.651 609.559,155.317 593,197.5C 568.063,248.903 526.896,275.57 469.5,277.5C 418.925,274.807 380.758,251.807 355,208.5C 330.718,157.713 334.718,109.379 367,63.5C 389.657,36.0899 418.491,19.4232 453.5,13.5 Z"/></g>
<g><path style="opacity:1" fill="#403e40" d="M 407.5,63.5 C 414.146,60.9599 419.313,62.6266 423,68.5C 428.748,91.2453 434.748,113.912 441,136.5C 442.267,126.159 443.601,115.826 445,105.5C 446.167,103.667 447.667,102.167 449.5,101C 453.833,100.333 458.167,100.333 462.5,101C 467.392,102.379 469.725,105.546 469.5,110.5C 466.862,133.88 464.029,157.213 461,180.5C 459.774,183.952 458.274,187.285 456.5,190.5C 460.413,199.15 462.58,208.15 463,217.5C 447.869,222.599 432.703,227.599 417.5,232.5C 413.053,233.427 408.719,234.76 404.5,236.5C 402.971,236.471 401.804,235.804 401,234.5C 382.216,190.535 364.716,145.701 348.5,100C 351.404,90.0693 357.237,87.9026 366,93.5C 364.735,88.9486 364.068,84.2819 364,79.5C 367.23,72.5016 372.397,70.6682 379.5,74C 380.787,75.4095 381.954,76.9095 383,78.5C 380.504,69.8214 383.504,64.1547 392,61.5C 397.643,63.1429 401.31,66.8095 403,72.5C 403.454,68.9248 404.954,65.9248 407.5,63.5 Z"/></g>
<g><path style="opacity:1" fill="#eaeaea" d="M 458.5,204.5 C 461.042,208.145 461.709,212.145 460.5,216.5C 441.902,222.2 423.402,228.2 405,234.5C 402.099,233.564 401.932,232.397 404.5,231C 421.547,225.822 438.547,220.488 455.5,215C 458.1,212.016 459.1,208.516 458.5,204.5 Z"/></g>
<g><path style="opacity:1" fill="#faf9f9" d="M 445.5,200.5 C 454.33,199.162 457.83,202.829 456,211.5C 454.2,213.317 452.034,214.484 449.5,215C 433.798,219.734 418.131,224.568 402.5,229.5C 401.914,229.291 401.414,228.957 401,228.5C 399.673,224.191 398.506,219.858 397.5,215.5C 413.786,211.101 429.786,206.101 445.5,200.5 Z"/></g>
<g><path style="opacity:1" fill="#403d40" d="M 528.5,234.5 C 511.523,229.119 494.69,223.452 478,217.5C 477.333,214.833 477.333,212.167 478,209.5C 480.176,202.973 482.342,196.473 484.5,190C 482.348,187.531 480.848,184.698 480,181.5C 477.813,160.772 475.146,140.106 472,119.5C 468.548,104.618 474.381,98.4512 489.5,101C 492.455,101.392 494.622,102.892 496,105.5C 496.842,115.567 498.175,125.567 500,135.5C 506.052,112.403 512.386,89.4034 519,66.5C 524.595,61.2271 530.261,61.2271 536,66.5C 536.862,68.087 537.529,69.7536 538,71.5C 539.18,69.1401 540.347,66.8068 541.5,64.5C 548.429,59.654 553.929,60.9874 558,68.5C 558.333,71.1667 558.667,73.8333 559,76.5C 565.088,70.889 570.755,71.2223 576,77.5C 576.923,79.0344 577.423,80.701 577.5,82.5C 576.197,86.5629 575.031,90.5629 574,94.5C 578.984,89.5408 584.318,89.2075 590,93.5C 591.404,95.6389 592.237,97.9722 592.5,100.5C 576.49,144.397 559.657,187.73 542,230.5C 541.208,232.587 540.041,234.421 538.5,236C 535.122,236.048 531.789,235.548 528.5,234.5 Z"/></g>
<g><path style="opacity:1" fill="#e9e9e9" d="M 481.5,204.5 C 482.314,206.631 482.814,208.964 483,211.5C 483.465,212.931 484.299,214.097 485.5,215C 502.532,220.9 519.699,226.4 537,231.5C 538.828,232.886 538.495,233.886 536,234.5C 517.523,228.589 499.023,222.756 480.5,217C 479.903,215.938 479.57,214.772 479.5,213.5C 480.172,210.488 480.839,207.488 481.5,204.5 Z"/></g>
<g><path style="opacity:1" fill="#f9f9f9" d="M 487.5,200.5 C 490.91,200.457 494.243,200.957 497.5,202C 512.677,207.127 528.011,211.627 543.5,215.5C 542.442,219.844 541.276,224.177 540,228.5C 538.612,229.554 537.112,229.72 535.5,229C 519.5,224 503.5,219 487.5,214C 483.624,209.574 483.624,205.074 487.5,200.5 Z"/></g>
<g><path style="opacity:1" fill="#fbfbfb" d="M 547.5,63.5 C 553.158,63.825 556.158,66.825 556.5,72.5C 551.34,91.1468 545.674,109.647 539.5,128C 539.833,128.5 540.167,129 540.5,129.5C 542.121,127.847 543.288,125.847 544,123.5C 549.073,107.947 554.74,92.6133 561,77.5C 564.659,73.8849 568.659,73.5515 573,76.5C 573.985,78.3659 574.485,80.3659 574.5,82.5C 567.83,102.843 561.163,123.176 554.5,143.5C 555.5,143.5 556.5,143.5 557.5,143.5C 562.831,127.676 568.665,112.009 575,96.5C 578.705,92.018 583.038,91.3513 588,94.5C 589.076,96.0672 589.909,97.7338 590.5,99.5C 577.63,134.278 564.463,168.945 551,203.5C 549.951,205.107 548.451,205.773 546.5,205.5C 546.162,207.854 545.662,210.187 545,212.5C 544.107,213.081 543.107,213.415 542,213.5C 526.169,208.668 510.336,203.834 494.5,199C 489.375,197.431 485.541,198.931 483,203.5C 483.521,198.919 484.688,194.419 486.5,190C 484.323,186.811 482.823,183.311 482,179.5C 478.97,156.864 476.136,134.197 473.5,111.5C 472.854,107.312 474.52,104.478 478.5,103C 482.167,102.333 485.833,102.333 489.5,103C 491.002,103.583 492.335,104.416 493.5,105.5C 495.261,117.861 497.261,130.194 499.5,142.5C 500.964,139.997 502.131,137.33 503,134.5C 508.222,111.942 514.222,89.6089 521,67.5C 525.261,63.5773 529.594,63.5773 534,67.5C 534.875,68.8732 535.375,70.3732 535.5,72C 531.476,87.8787 527.309,103.712 523,119.5C 522.149,122.053 522.482,124.386 524,126.5C 529.408,106.2 535.741,86.1999 543,66.5C 544.409,65.2189 545.909,64.2189 547.5,63.5 Z"/></g>
<g><path style="opacity:1" fill="#fbfbfb" d="M 389.5,63.5 C 395.67,63.503 399.504,66.503 401,72.5C 406.335,90.5167 411.668,108.517 417,126.5C 418.487,124.728 418.82,122.728 418,120.5C 413.755,104.352 409.588,88.1856 405.5,72C 406.75,65.0994 410.75,62.7661 417.5,65C 418.333,65.8333 419.167,66.6667 420,67.5C 427.597,92.2222 434.097,117.222 439.5,142.5C 440.5,142.5 441.5,142.5 442.5,142.5C 444.006,129.767 445.839,117.101 448,104.5C 454.712,101.471 461.045,102.138 467,106.5C 467.667,110.5 467.667,114.5 467,118.5C 464.005,138.781 461.338,159.115 459,179.5C 458.177,183.311 456.677,186.811 454.5,190C 456.317,194.43 457.484,198.93 458,203.5C 455.024,199.061 450.857,197.561 445.5,199C 429.667,203.833 413.833,208.667 398,213.5C 397.228,213.355 396.561,213.022 396,212.5C 395.333,210.5 394.667,208.5 394,206.5C 392.324,205.939 390.991,204.939 390,203.5C 376.327,169.306 363.16,134.973 350.5,100.5C 351.697,93.7268 355.697,91.2268 362.5,93C 363.667,94.1667 364.833,95.3333 366,96.5C 371.667,111.5 377.333,126.5 383,141.5C 383.71,142.973 384.876,143.64 386.5,143.5C 380.091,122.939 373.091,102.606 365.5,82.5C 367.905,74.0637 372.738,72.3971 380,77.5C 387.134,95.738 393.968,114.071 400.5,132.5C 401.614,131.277 401.781,129.944 401,128.5C 395.664,111.155 390.331,93.822 385,76.5C 383.381,70.9676 384.881,66.6343 389.5,63.5 Z"/></g>
<g><path style="opacity:1" fill="#011541" d="M 541.5,64.5 C 540.347,66.8068 539.18,69.1401 538,71.5C 537.529,69.7536 536.862,68.087 536,66.5C 530.261,61.2271 524.595,61.2271 519,66.5C 512.386,89.4034 506.052,112.403 500,135.5C 498.175,125.567 496.842,115.567 496,105.5C 494.622,102.892 492.455,101.392 489.5,101C 474.381,98.4512 468.548,104.618 472,119.5C 475.146,140.106 477.813,160.772 480,181.5C 480.848,184.698 482.348,187.531 484.5,190C 482.342,196.473 480.176,202.973 478,209.5C 477.333,212.167 477.333,214.833 478,217.5C 494.69,223.452 511.523,229.119 528.5,234.5C 491.723,255.651 454.723,255.818 417.5,235C 416.402,234.23 416.402,233.397 417.5,232.5C 432.703,227.599 447.869,222.599 463,217.5C 462.58,208.15 460.413,199.15 456.5,190.5C 458.274,187.285 459.774,183.952 461,180.5C 464.029,157.213 466.862,133.88 469.5,110.5C 469.725,105.546 467.392,102.379 462.5,101C 458.167,100.333 453.833,100.333 449.5,101C 447.667,102.167 446.167,103.667 445,105.5C 443.601,115.826 442.267,126.159 441,136.5C 434.748,113.912 428.748,91.2453 423,68.5C 419.313,62.6266 414.146,60.9599 407.5,63.5C 406.262,63.19 406.262,62.69 407.5,62C 446.323,34.7221 486.656,32.3888 528.5,55C 532.992,57.9981 537.325,61.1648 541.5,64.5 Z"/></g>
<g><path style="opacity:1" fill="#e9ebed" d="M 724.5,232.5 C 724.842,231.662 725.508,231.328 726.5,231.5C 729.238,231.851 731.904,232.518 734.5,233.5C 735.5,392.499 735.833,551.499 735.5,710.5C 735.672,711.492 735.338,712.158 734.5,712.5C 733.833,553.167 733.167,393.833 732.5,234.5C 729.733,234.142 727.067,233.475 724.5,232.5 Z"/></g>
<g><path style="opacity:1" fill="#374158" d="M 207.5,233.5 C 207.5,394.5 207.5,555.5 207.5,716.5C 205.973,716.573 204.973,715.906 204.5,714.5C 206.166,554.336 207.166,394.003 207.5,233.5 Z"/></g>
<g><path style="opacity:1" fill="#f5fbf9" d="M 207.5,233.5 C 208.791,233.263 209.791,233.596 210.5,234.5C 210.166,395.336 209.166,556.003 207.5,716.5C 207.5,555.5 207.5,394.5 207.5,233.5 Z"/></g>
<g><path style="opacity:1" fill="#02153c" d="M 354.5,232.5 C 358.587,237.646 362.921,242.646 367.5,247.5C 329.607,259.141 291.607,270.474 253.5,281.5C 253.167,310.508 253.5,339.508 254.5,368.5C 275.39,375.575 296.39,382.241 317.5,388.5C 317.5,388.833 317.5,389.167 317.5,389.5C 315.36,391.7 313.86,394.367 313,397.5C 296.92,445.659 295.254,494.325 308,543.5C 320.654,589.004 345.821,625.837 383.5,654C 386.727,656.112 390.06,657.945 393.5,659.5C 393.667,674.837 393.5,690.17 393,705.5C 368.667,684.5 344.333,663.5 320,642.5C 319.833,622.492 319.333,602.492 318.5,582.5C 297.553,574.629 276.553,566.963 255.5,559.5C 255.44,558.957 255.107,558.624 254.5,558.5C 253.501,569.814 253.168,581.147 253.5,592.5C 253.167,627.84 253.5,663.173 254.5,698.5C 307.861,732.177 361.195,765.844 414.5,799.5C 412.393,800.468 410.059,800.802 407.5,800.5C 402.254,799.19 396.921,798.19 391.5,797.5C 387.837,795.584 383.837,794.584 379.5,794.5C 379.167,794.5 378.833,794.5 378.5,794.5C 376.562,792.837 374.228,792.171 371.5,792.5C 324.494,778.666 279.827,759.333 237.5,734.5C 237.5,577.833 237.5,421.167 237.5,264.5C 239.302,263.542 241.302,262.875 243.5,262.5C 280.444,252.347 317.444,242.347 354.5,232.5 Z"/></g>
<g><path style="opacity:1" fill="#04153d" d="M 588.5,232.5 C 626.406,242.821 664.406,253.154 702.5,263.5C 703.15,263.804 703.817,264.137 704.5,264.5C 705.5,419.499 705.833,574.499 705.5,729.5C 668.113,752.53 628.779,771.196 587.5,785.5C 581.95,786.796 576.617,788.463 571.5,790.5C 558.87,793.758 546.204,796.758 533.5,799.5C 532.167,799.5 530.833,799.5 529.5,799.5C 582.851,765.4 636.351,731.4 690,697.5C 690.916,651.149 690.416,604.815 688.5,558.5C 667.355,566.603 646.189,574.603 625,582.5C 624.667,602.5 624.333,622.5 624,642.5C 599.667,663.167 575.333,683.833 551,704.5C 550.5,689.17 550.333,673.837 550.5,658.5C 584.524,636.633 609.358,606.966 625,569.5C 642.309,526.556 647.142,482.223 639.5,436.5C 656.233,430.256 673.233,424.589 690.5,419.5C 690.667,373.832 690.5,328.165 690,282.5C 651.702,270.898 613.535,259.231 575.5,247.5C 579.489,242.179 583.822,237.179 588.5,232.5 Z"/></g>
<g><path style="opacity:1" fill="#6cd1b9" d="M 732.5,234.5 C 733.167,393.833 733.833,553.167 734.5,712.5C 734.158,713.338 733.492,713.672 732.5,713.5C 732.5,553.833 732.5,394.167 732.5,234.5 Z"/></g>
<g><path style="opacity:1" fill="#e0eceb" d="M 354.5,232.5 C 317.444,242.347 280.444,252.347 243.5,262.5C 242.791,261.596 241.791,261.263 240.5,261.5C 277.875,251.103 315.375,240.77 353,230.5C 354.03,230.836 354.53,231.503 354.5,232.5 Z"/></g>
<g><path style="opacity:1" fill="#fbfcfc" d="M 367.5,247.5 C 375.642,255.646 384.642,262.646 394.5,268.5C 413.857,280.619 434.857,287.952 457.5,290.5C 457.5,462.167 457.5,633.833 457.5,805.5C 456.5,805.5 455.5,805.5 454.5,805.5C 454.773,688.496 454.44,571.496 453.5,454.5C 453.5,444.833 453.5,435.167 453.5,425.5C 453.5,414.5 453.5,403.5 453.5,392.5C 453.5,373.833 453.5,355.167 453.5,336.5C 434.518,338.347 415.518,340.014 396.5,341.5C 396.5,360.167 396.5,378.833 396.5,397.5C 396.5,408.5 396.5,419.5 396.5,430.5C 396.5,478.5 396.5,526.5 396.5,574.5C 396.832,621.003 396.499,667.336 395.5,713.5C 389.435,708.095 383.102,703.095 376.5,698.5C 365.447,687.781 353.781,677.781 341.5,668.5C 332.5,660.5 323.5,652.5 314.5,644.5C 314.5,634.833 314.5,625.167 314.5,615.5C 314.819,605.251 314.486,595.084 313.5,585C 294.829,578.555 276.329,571.722 258,564.5C 257.5,583.164 257.333,601.83 257.5,620.5C 257.5,630.167 257.5,639.833 257.5,649.5C 257.5,658.5 257.5,667.5 257.5,676.5C 257.334,682.176 257.501,687.843 258,693.5C 265.777,698.635 273.61,703.635 281.5,708.5C 294.851,716.86 308.184,725.193 321.5,733.5C 342.458,747.652 363.791,761.319 385.5,774.5C 399.595,783.41 413.595,792.577 427.5,802C 424.854,802.497 422.187,802.664 419.5,802.5C 418.035,801.263 416.368,800.263 414.5,799.5C 361.195,765.844 307.861,732.177 254.5,698.5C 253.5,663.173 253.167,627.84 253.5,592.5C 254.167,581.5 254.833,570.5 255.5,559.5C 276.553,566.963 297.553,574.629 318.5,582.5C 319.333,602.492 319.833,622.492 320,642.5C 344.333,663.5 368.667,684.5 393,705.5C 393.5,690.17 393.667,674.837 393.5,659.5C 393.5,594.167 393.5,528.833 393.5,463.5C 393.5,414.833 393.5,366.167 393.5,317.5C 392.209,317.263 391.209,317.596 390.5,318.5C 366.697,325.435 343.03,332.768 319.5,340.5C 318.833,356.5 318.167,372.5 317.5,388.5C 296.39,382.241 275.39,375.575 254.5,368.5C 253.5,339.508 253.167,310.508 253.5,281.5C 291.607,270.474 329.607,259.141 367.5,247.5 Z"/></g>
<g><path style="opacity:1" fill="#f9f9fa" d="M 575.5,247.5 C 613.535,259.231 651.702,270.898 690,282.5C 690.5,328.165 690.667,373.832 690.5,419.5C 673.233,424.589 656.233,430.256 639.5,436.5C 633.314,437.895 627.314,439.895 621.5,442.5C 620.833,408.167 620.167,373.833 619.5,339.5C 596.614,332.26 573.781,324.927 551,317.5C 550.5,431.166 550.333,544.833 550.5,658.5C 550.333,673.837 550.5,689.17 551,704.5C 575.333,683.833 599.667,663.167 624,642.5C 624.333,622.5 624.667,602.5 625,582.5C 646.189,574.603 667.355,566.603 688.5,558.5C 690.416,604.815 690.916,651.149 690,697.5C 636.351,731.4 582.851,765.4 529.5,799.5C 527.302,799.875 525.302,800.542 523.5,801.5C 520.763,801.401 518.096,801.735 515.5,802.5C 537.5,788.167 559.5,773.833 581.5,759.5C 595.372,751.069 609.039,742.403 622.5,733.5C 635.706,725.402 648.706,717.069 661.5,708.5C 669.5,703.5 677.5,698.5 685.5,693.5C 686.831,650.665 686.831,607.665 685.5,564.5C 666.534,571.21 647.701,578.21 629,585.5C 628.5,600.83 628.333,616.163 628.5,631.5C 628.5,635.833 628.5,640.167 628.5,644.5C 619.5,652.5 610.5,660.5 601.5,668.5C 589.808,678.529 578.142,688.529 566.5,698.5C 560.786,703.549 554.786,708.215 548.5,712.5C 547.5,589.001 547.167,465.334 547.5,341.5C 528.481,340.031 509.481,338.365 490.5,336.5C 489.597,362.821 489.263,389.154 489.5,415.5C 489.5,428.5 489.5,441.5 489.5,454.5C 489.5,465.5 489.5,476.5 489.5,487.5C 489.5,508.167 489.5,528.833 489.5,549.5C 489.5,571.5 489.5,593.5 489.5,615.5C 489.5,632.833 489.5,650.167 489.5,667.5C 489.5,688.5 489.5,709.5 489.5,730.5C 489.5,743.833 489.5,757.167 489.5,770.5C 489.5,781.833 489.5,793.167 489.5,804.5C 488.5,804.5 487.5,804.5 486.5,804.5C 486.833,632.999 486.5,461.666 485.5,290.5C 520.289,286.129 550.289,271.796 575.5,247.5 Z"/></g>
<g><path style="opacity:1" fill="#dee4e7" d="M 588.5,231.5 C 627.71,241.385 666.71,251.718 705.5,262.5C 704.209,262.263 703.209,262.596 702.5,263.5C 664.406,253.154 626.406,242.821 588.5,232.5C 588.5,232.167 588.5,231.833 588.5,231.5 Z"/></g>
<g><path style="opacity:1" fill="#fdfdfd" d="M 240.5,261.5 C 241.791,261.263 242.791,261.596 243.5,262.5C 241.302,262.875 239.302,263.542 237.5,264.5C 236.833,420.833 236.167,577.167 235.5,733.5C 235.5,576.5 235.5,419.5 235.5,262.5C 237.216,262.371 238.883,262.038 240.5,261.5 Z"/></g>
<g><path style="opacity:1" fill="#f6fbfa" d="M 702.5,263.5 C 703.209,262.596 704.209,262.263 705.5,262.5C 706.833,339.83 707.5,417.497 707.5,495.5C 707.499,573.57 707.165,651.57 706.5,729.5C 706.167,729.5 705.833,729.5 705.5,729.5C 705.833,574.499 705.5,419.499 704.5,264.5C 703.817,264.137 703.15,263.804 702.5,263.5 Z"/></g>
<g><path style="opacity:1" fill="#c0c4ce" d="M 237.5,264.5 C 237.5,421.167 237.5,577.833 237.5,734.5C 236.508,734.672 235.842,734.338 235.5,733.5C 236.167,577.167 236.833,420.833 237.5,264.5 Z"/></g>
<g><path style="opacity:1" fill="#011541" d="M 458.5,290.5 C 467.5,290.5 476.5,290.5 485.5,290.5C 485.5,328.833 485.5,367.167 485.5,405.5C 476.586,403.276 467.586,402.943 458.5,404.5C 458.5,366.5 458.5,328.5 458.5,290.5 Z"/></g>
<g><path style="opacity:1" fill="#011540" d="M 390.5,318.5 C 392.165,366.658 393.165,414.991 393.5,463.5C 393.5,528.833 393.5,594.167 393.5,659.5C 390.06,657.945 386.727,656.112 383.5,654C 345.821,625.837 320.654,589.004 308,543.5C 295.254,494.325 296.92,445.659 313,397.5C 313.86,394.367 315.36,391.7 317.5,389.5C 319.485,373.534 320.152,357.201 319.5,340.5C 343.03,332.768 366.697,325.435 390.5,318.5 Z"/></g>
<g><path style="opacity:1" fill="#011540" d="M 639.5,436.5 C 647.142,482.223 642.309,526.556 625,569.5C 609.358,606.966 584.524,636.633 550.5,658.5C 550.333,544.833 550.5,431.166 551,317.5C 573.781,324.927 596.614,332.26 619.5,339.5C 620.167,373.833 620.833,408.167 621.5,442.5C 627.314,439.895 633.314,437.895 639.5,436.5 Z"/></g>
<g><path style="opacity:1" fill="#f2f2f2" d="M 453.5,392.5 C 434.55,394.628 415.55,396.295 396.5,397.5C 396.5,378.833 396.5,360.167 396.5,341.5C 415.518,340.014 434.518,338.347 453.5,336.5C 453.5,355.167 453.5,373.833 453.5,392.5 Z"/></g>
<g><path style="opacity:1" fill="#f2f2f3" d="M 548.5,712.5 C 548.217,713.289 547.717,713.956 547,714.5C 546.5,702.171 546.333,689.838 546.5,677.5C 546.5,663.833 546.5,650.167 546.5,636.5C 546.5,626.833 546.5,617.167 546.5,607.5C 546.5,597.833 546.5,588.167 546.5,578.5C 546.5,567.5 546.5,556.5 546.5,545.5C 546.5,535.833 546.5,526.167 546.5,516.5C 546.5,507.5 546.5,498.5 546.5,489.5C 546.5,479.5 546.5,469.5 546.5,459.5C 546.5,449.833 546.5,440.167 546.5,430.5C 546.5,419.5 546.5,408.5 546.5,397.5C 527.789,396.229 509.122,394.562 490.5,392.5C 490.825,400.352 490.492,408.018 489.5,415.5C 489.263,389.154 489.597,362.821 490.5,336.5C 509.481,338.365 528.481,340.031 547.5,341.5C 547.167,465.334 547.5,589.001 548.5,712.5 Z"/></g>
<g><path style="opacity:1" fill="#70d4bc" d="M 235.5,262.5 C 235.5,419.5 235.5,576.5 235.5,733.5C 234.508,733.672 233.842,733.338 233.5,732.5C 234.167,575.833 234.833,419.167 235.5,262.5 Z"/></g>
<g><path style="opacity:1" fill="#606c86" d="M 319.5,340.5 C 320.152,357.201 319.485,373.534 317.5,389.5C 317.5,389.167 317.5,388.833 317.5,388.5C 318.167,372.5 318.833,356.5 319.5,340.5 Z"/></g>
<g><path style="opacity:1" fill="#eaeaea" d="M 453.5,392.5 C 453.5,403.5 453.5,414.5 453.5,425.5C 434.542,427.587 415.542,429.254 396.5,430.5C 396.5,419.5 396.5,408.5 396.5,397.5C 415.55,396.295 434.55,394.628 453.5,392.5 Z"/></g>
<g><path style="opacity:1" fill="#eaeaea" d="M 546.5,430.5 C 527.797,429.194 509.13,427.527 490.5,425.5C 490.5,435.167 490.5,444.833 490.5,454.5C 490.167,454.5 489.833,454.5 489.5,454.5C 489.5,441.5 489.5,428.5 489.5,415.5C 490.492,408.018 490.825,400.352 490.5,392.5C 509.122,394.562 527.789,396.229 546.5,397.5C 546.5,408.5 546.5,419.5 546.5,430.5 Z"/></g>
<g><path style="opacity:1" fill="#001646" d="M 485.5,405.5 C 485.5,454.167 485.5,502.833 485.5,551.5C 476.453,554.029 467.453,554.029 458.5,551.5C 458.5,502.5 458.5,453.5 458.5,404.5C 467.586,402.943 476.586,403.276 485.5,405.5 Z"/></g>
<g><path style="opacity:1" fill="#e3e3e4" d="M 453.5,425.5 C 453.5,435.167 453.5,444.833 453.5,454.5C 434.886,456.647 416.219,458.313 397.5,459.5C 397.5,478.5 397.5,497.5 397.5,516.5C 397.5,526.167 397.5,535.833 397.5,545.5C 397.827,555.348 397.494,565.014 396.5,574.5C 396.5,526.5 396.5,478.5 396.5,430.5C 415.542,429.254 434.542,427.587 453.5,425.5 Z"/></g>
<g><path style="opacity:1" fill="#e3e4e4" d="M 546.5,430.5 C 546.5,440.167 546.5,449.833 546.5,459.5C 527.782,458.313 509.115,456.647 490.5,454.5C 490.5,444.833 490.5,435.167 490.5,425.5C 509.13,427.527 527.797,429.194 546.5,430.5 Z"/></g>
<g><path style="opacity:1" fill="#3a4a6d" d="M 390.5,318.5 C 391.209,317.596 392.209,317.263 393.5,317.5C 393.5,366.167 393.5,414.833 393.5,463.5C 393.165,414.991 392.165,366.658 390.5,318.5 Z"/></g>
<g><path style="opacity:1" fill="#ddddde" d="M 489.5,454.5 C 489.833,454.5 490.167,454.5 490.5,454.5C 509.115,456.647 527.782,458.313 546.5,459.5C 546.5,469.5 546.5,479.5 546.5,489.5C 528.196,487.502 509.863,485.502 491.5,483.5C 490.828,484.949 490.161,486.282 489.5,487.5C 489.5,476.5 489.5,465.5 489.5,454.5 Z"/></g>
<g><path style="opacity:1" fill="#dadbdb" d="M 453.5,454.5 C 454.44,571.496 454.773,688.496 454.5,805.5C 453.505,792.677 453.171,779.677 453.5,766.5C 453.5,751.167 453.5,735.833 453.5,720.5C 453.5,710.833 453.5,701.167 453.5,691.5C 453.5,680.5 453.5,669.5 453.5,658.5C 453.5,649.5 453.5,640.5 453.5,631.5C 453.5,621.833 453.5,612.167 453.5,602.5C 453.5,592.833 453.5,583.167 453.5,573.5C 453.5,562.5 453.5,551.5 453.5,540.5C 453.5,530.833 453.5,521.167 453.5,511.5C 434.766,512.64 416.1,514.307 397.5,516.5C 397.5,497.5 397.5,478.5 397.5,459.5C 416.219,458.313 434.886,456.647 453.5,454.5 Z"/></g>
<g><path style="opacity:1" fill="#d7d8d8" d="M 546.5,489.5 C 546.5,498.5 546.5,507.5 546.5,516.5C 527.9,514.307 509.234,512.64 490.5,511.5C 490.5,521.167 490.5,530.833 490.5,540.5C 490.81,543.713 490.477,546.713 489.5,549.5C 489.5,528.833 489.5,508.167 489.5,487.5C 490.161,486.282 490.828,484.949 491.5,483.5C 509.863,485.502 528.196,487.502 546.5,489.5 Z"/></g>
<g><path style="opacity:1" fill="#d1d2d3" d="M 453.5,540.5 C 434.781,541.687 416.114,543.353 397.5,545.5C 397.5,535.833 397.5,526.167 397.5,516.5C 416.1,514.307 434.766,512.64 453.5,511.5C 453.5,521.167 453.5,530.833 453.5,540.5 Z"/></g>
<g><path style="opacity:1" fill="#d1d2d3" d="M 546.5,516.5 C 546.5,526.167 546.5,535.833 546.5,545.5C 527.878,543.438 509.211,541.771 490.5,540.5C 490.5,530.833 490.5,521.167 490.5,511.5C 509.234,512.64 527.9,514.307 546.5,516.5 Z"/></g>
<g><path style="opacity:1" fill="#cbcccd" d="M 453.5,540.5 C 453.5,551.5 453.5,562.5 453.5,573.5C 434.781,574.687 416.114,576.353 397.5,578.5C 397.5,588.167 397.5,597.833 397.5,607.5C 397.5,617.167 397.5,626.833 397.5,636.5C 397.5,645.5 397.5,654.5 397.5,663.5C 397.5,674.5 397.5,685.5 397.5,696.5C 397.829,702.537 397.496,708.537 396.5,714.5C 395.893,714.376 395.56,714.043 395.5,713.5C 396.499,667.336 396.832,621.003 396.5,574.5C 397.494,565.014 397.827,555.348 397.5,545.5C 416.114,543.353 434.781,541.687 453.5,540.5 Z"/></g>
<g><path style="opacity:1" fill="#cacbcc" d="M 490.5,540.5 C 509.211,541.771 527.878,543.438 546.5,545.5C 546.5,556.5 546.5,567.5 546.5,578.5C 527.886,576.353 509.219,574.687 490.5,573.5C 490.5,583.167 490.5,592.833 490.5,602.5C 490.818,607.032 490.485,611.366 489.5,615.5C 489.5,593.5 489.5,571.5 489.5,549.5C 490.477,546.713 490.81,543.713 490.5,540.5 Z"/></g>
<g><path style="opacity:1" fill="#011541" d="M 458.5,551.5 C 467.453,554.029 476.453,554.029 485.5,551.5C 485.5,594.833 485.5,638.167 485.5,681.5C 476.36,682.139 467.36,682.139 458.5,681.5C 458.5,638.167 458.5,594.833 458.5,551.5 Z"/></g>
<g><path style="opacity:1" fill="#d5d8df" d="M 485.5,290.5 C 486.5,461.666 486.833,632.999 486.5,804.5C 487.5,804.5 488.5,804.5 489.5,804.5C 489.5,804.833 489.5,805.167 489.5,805.5C 488.167,805.5 486.833,805.5 485.5,805.5C 485.5,764.167 485.5,722.833 485.5,681.5C 485.5,638.167 485.5,594.833 485.5,551.5C 485.5,502.833 485.5,454.167 485.5,405.5C 485.5,367.167 485.5,328.833 485.5,290.5 Z"/></g>
<g><path style="opacity:1" fill="#c4c5c6" d="M 453.5,573.5 C 453.5,583.167 453.5,592.833 453.5,602.5C 434.792,603.807 416.125,605.473 397.5,607.5C 397.5,597.833 397.5,588.167 397.5,578.5C 416.114,576.353 434.781,574.687 453.5,573.5 Z"/></g>
<g><path style="opacity:1" fill="#c4c5c6" d="M 546.5,578.5 C 546.5,588.167 546.5,597.833 546.5,607.5C 527.87,605.473 509.203,603.806 490.5,602.5C 490.5,592.833 490.5,583.167 490.5,573.5C 509.219,574.687 527.886,576.353 546.5,578.5 Z"/></g>
<g><path style="opacity:1" fill="#9ba2b1" d="M 255.5,559.5 C 254.833,570.5 254.167,581.5 253.5,592.5C 253.168,581.147 253.501,569.814 254.5,558.5C 255.107,558.624 255.44,558.957 255.5,559.5 Z"/></g>
<g><path style="opacity:1" fill="#c4c6c7" d="M 314.5,615.5 C 295.458,616.746 276.458,618.413 257.5,620.5C 257.333,601.83 257.5,583.164 258,564.5C 276.329,571.722 294.829,578.555 313.5,585C 314.486,595.084 314.819,605.251 314.5,615.5 Z"/></g>
<g><path style="opacity:1" fill="#c5c6c8" d="M 685.5,693.5 C 685.5,687.833 685.5,682.167 685.5,676.5C 685.5,667.5 685.5,658.5 685.5,649.5C 685.5,639.833 685.5,630.167 685.5,620.5C 666.87,618.473 648.203,616.806 629.5,615.5C 629.821,621.026 629.488,626.36 628.5,631.5C 628.333,616.163 628.5,600.83 629,585.5C 647.701,578.21 666.534,571.21 685.5,564.5C 686.831,607.665 686.831,650.665 685.5,693.5 Z"/></g>
<g><path style="opacity:1" fill="#bebfc0" d="M 453.5,602.5 C 453.5,612.167 453.5,621.833 453.5,631.5C 434.807,632.927 416.141,634.593 397.5,636.5C 397.5,626.833 397.5,617.167 397.5,607.5C 416.125,605.473 434.792,603.807 453.5,602.5 Z"/></g>
<g><path style="opacity:1" fill="#bebfc0" d="M 490.5,602.5 C 509.203,603.806 527.87,605.473 546.5,607.5C 546.5,617.167 546.5,626.833 546.5,636.5C 527.857,634.593 509.19,632.926 490.5,631.5C 490.828,643.678 490.495,655.678 489.5,667.5C 489.5,650.167 489.5,632.833 489.5,615.5C 490.485,611.366 490.818,607.032 490.5,602.5 Z"/></g>
<g><path style="opacity:1" fill="#bebfc0" d="M 314.5,615.5 C 314.5,625.167 314.5,634.833 314.5,644.5C 295.471,645.866 276.471,647.533 257.5,649.5C 257.5,639.833 257.5,630.167 257.5,620.5C 276.458,618.413 295.458,616.746 314.5,615.5 Z"/></g>
<g><path style="opacity:1" fill="#bebfc0" d="M 685.5,649.5 C 666.529,647.533 647.529,645.866 628.5,644.5C 628.5,640.167 628.5,635.833 628.5,631.5C 629.488,626.36 629.821,621.026 629.5,615.5C 648.203,616.806 666.87,618.473 685.5,620.5C 685.5,630.167 685.5,639.833 685.5,649.5 Z"/></g>
<g><path style="opacity:1" fill="#47d3b2" d="M 191.5,652.5 C 179.413,652.268 167.413,653.101 155.5,655C 151.302,656.905 148.636,660.072 147.5,664.5C 138.691,709.589 134.024,755.256 133.5,801.5C 132.5,801.5 131.5,801.5 130.5,801.5C 86.4208,796.29 43.7541,801.957 2.5,818.5C 2.16667,818 1.83333,817.5 1.5,817C 3.23827,814.357 4.57161,811.523 5.5,808.5C 9.34318,800.659 14.3432,793.659 20.5,787.5C 22.914,786.089 24.5806,784.089 25.5,781.5C 28.9031,779.1 31.5698,776.1 33.5,772.5C 35.6936,769.395 38.3603,766.728 41.5,764.5C 43.7488,763.92 45.4154,762.587 46.5,760.5C 47.5,758.833 48.8333,757.5 50.5,756.5C 54.0515,754.889 57.0515,752.556 59.5,749.5C 63.7066,747.565 67.3733,744.898 70.5,741.5C 72.2964,739.1 74.6298,737.433 77.5,736.5C 80.8607,735.316 83.8607,733.483 86.5,731C 84.5932,729.878 82.5932,729.045 80.5,728.5C 79.089,726.461 77.089,725.461 74.5,725.5C 66.4814,721.829 59.148,717.162 52.5,711.5C 49.7251,708.395 46.3918,706.062 42.5,704.5C 41.4154,702.413 39.7488,701.08 37.5,700.5C 31.2274,696.893 25.894,692.227 21.5,686.5C 19.8333,684.167 17.8333,682.167 15.5,680.5C 13.5,677.833 11.1667,675.5 8.5,673.5C 7.83333,673.5 7.5,673.167 7.5,672.5C 6.61095,670.264 5.27761,668.264 3.5,666.5C 11.559,663.132 19.559,659.799 27.5,656.5C 81.8432,638.017 136.51,636.684 191.5,652.5 Z"/></g>
<g><path style="opacity:1" fill="#b8b9ba" d="M 453.5,631.5 C 453.5,640.5 453.5,649.5 453.5,658.5C 434.822,660.047 416.155,661.713 397.5,663.5C 397.5,654.5 397.5,645.5 397.5,636.5C 416.141,634.593 434.807,632.927 453.5,631.5 Z"/></g>
<g><path style="opacity:0.66" fill="#5d7b74" d="M 929.5,661.5 C 907.679,653.627 885.346,647.46 862.5,643C 824.066,637.513 786.4,640.347 749.5,651.5C 747.801,651.66 746.134,651.494 744.5,651C 745.094,650.536 745.761,650.369 746.5,650.5C 747.609,650.443 748.609,650.11 749.5,649.5C 811.023,631.99 871.023,635.99 929.5,661.5 Z"/></g>
<g><path style="opacity:0.965" fill="#5e7b75" d="M 193.5,650.5 C 193.833,651.167 194.167,651.833 194.5,652.5C 193.5,652.5 192.5,652.5 191.5,652.5C 136.51,636.684 81.8432,638.017 27.5,656.5C 68.2002,640.831 110.2,636.331 153.5,643C 166.887,645.311 180.221,647.811 193.5,650.5 Z"/></g>
<g><path style="opacity:1" fill="#b8b9ba" d="M 314.5,644.5 C 323.5,652.5 332.5,660.5 341.5,668.5C 313.526,671.346 285.526,674.013 257.5,676.5C 257.5,667.5 257.5,658.5 257.5,649.5C 276.471,647.533 295.471,645.866 314.5,644.5 Z"/></g>
<g><path style="opacity:1" fill="#b8b9ba" d="M 628.5,644.5 C 647.529,645.866 666.529,647.533 685.5,649.5C 685.5,658.5 685.5,667.5 685.5,676.5C 657.474,674.013 629.474,671.346 601.5,668.5C 610.5,660.5 619.5,652.5 628.5,644.5 Z"/></g>
<g><path style="opacity:1" fill="#b5b7b8" d="M 546.5,636.5 C 546.5,650.167 546.5,663.833 546.5,677.5C 527.992,675.59 509.492,673.59 491,671.5C 490.5,687.83 490.333,704.163 490.5,720.5C 490.813,724.042 490.479,727.375 489.5,730.5C 489.5,709.5 489.5,688.5 489.5,667.5C 490.495,655.678 490.828,643.678 490.5,631.5C 509.19,632.926 527.857,634.593 546.5,636.5 Z"/></g>
<g><path style="opacity:0.431" fill="#5c7e77" d="M 27.5,656.5 C 19.559,659.799 11.559,663.132 3.5,666.5C 5.27761,668.264 6.61095,670.264 7.5,672.5C 5.53717,671.04 3.70383,669.373 2,667.5C 1.38277,666.551 1.54943,665.718 2.5,665C 10.6253,661.458 18.9586,658.625 27.5,656.5 Z"/></g>
<g><path style="opacity:0.784" fill="#5b8079" d="M 929.5,661.5 C 933.23,661.854 936.563,663.187 939.5,665.5C 938.643,666.425 937.643,667.092 936.5,667.5C 936.719,666.325 936.386,665.325 935.5,664.5C 933.22,663.864 931.22,662.864 929.5,661.5 Z"/></g>
<g><path style="opacity:1" fill="#b1b3b4" d="M 453.5,658.5 C 453.5,669.5 453.5,680.5 453.5,691.5C 434.822,693.047 416.155,694.713 397.5,696.5C 397.5,685.5 397.5,674.5 397.5,663.5C 416.155,661.713 434.822,660.047 453.5,658.5 Z"/></g>
<g><path style="opacity:1" fill="#49d3b3" d="M 929.5,661.5 C 931.22,662.864 933.22,663.864 935.5,664.5C 936.386,665.325 936.719,666.325 936.5,667.5C 936.043,669.773 934.71,671.106 932.5,671.5C 925.167,678.167 918.167,685.167 911.5,692.5C 910.109,694.89 908.109,696.557 905.5,697.5C 903.251,698.08 901.585,699.413 900.5,701.5C 888.922,711.398 876.255,719.731 862.5,726.5C 859.243,727.462 856.243,728.962 853.5,731C 854.745,731.791 856.078,732.291 857.5,732.5C 859.147,734.326 861.147,735.66 863.5,736.5C 872.224,741.529 880.224,747.529 887.5,754.5C 889.9,757.903 892.9,760.57 896.5,762.5C 900.146,764.482 903.146,767.149 905.5,770.5C 906.08,772.749 907.413,774.415 909.5,775.5C 910.5,775.833 911.167,776.5 911.5,777.5C 912.419,780.089 914.086,782.089 916.5,783.5C 917.08,785.749 918.413,787.415 920.5,788.5C 921.08,790.749 922.413,792.415 924.5,793.5C 928.61,797.951 931.944,802.951 934.5,808.5C 935.588,811.429 936.921,814.263 938.5,817C 938.167,817.5 937.833,818 937.5,818.5C 895.951,801.765 852.951,796.098 808.5,801.5C 807.822,765.562 804.322,729.896 798,694.5C 797.833,696 797.667,697.5 797.5,699C 804.683,742.541 808.016,786.375 807.5,830.5C 807.5,830.833 807.5,831.167 807.5,831.5C 798.719,838.608 789.386,844.942 779.5,850.5C 775.317,852.087 771.65,854.421 768.5,857.5C 765.296,858.383 762.629,860.05 760.5,862.5C 756.677,865.916 752.343,868.582 747.5,870.5C 741.995,872.749 736.995,875.749 732.5,879.5C 731.341,881.25 729.674,882.25 727.5,882.5C 724.669,883.079 722.336,884.412 720.5,886.5C 717.008,887.41 714.008,889.076 711.5,891.5C 707.345,892.742 703.678,894.742 700.5,897.5C 700.158,898.338 699.492,898.672 698.5,898.5C 688.182,902.992 678.182,907.992 668.5,913.5C 663.749,914.71 659.416,916.71 655.5,919.5C 622.506,933.553 588.506,944.72 553.5,953C 484.951,968.01 417.285,964.676 350.5,943C 338.095,938.921 325.761,934.754 313.5,930.5C 310.47,928.597 307.137,927.263 303.5,926.5C 299.144,923.932 294.478,921.932 289.5,920.5C 286.912,918.375 283.912,917.042 280.5,916.5C 279.508,916.672 278.842,916.338 278.5,915.5C 266.151,908.659 253.484,902.325 240.5,896.5C 239.508,896.672 238.842,896.338 238.5,895.5C 235.992,893.076 232.992,891.41 229.5,890.5C 228.508,890.672 227.842,890.338 227.5,889.5C 225.664,887.412 223.331,886.079 220.5,885.5C 218.664,883.412 216.331,882.079 213.5,881.5C 211.326,881.25 209.659,880.25 208.5,878.5C 206.664,876.412 204.331,875.079 201.5,874.5C 199.371,872.05 196.704,870.383 193.5,869.5C 191.326,869.25 189.659,868.25 188.5,866.5C 186.371,864.05 183.704,862.383 180.5,861.5C 178.973,861.573 177.973,860.906 177.5,859.5C 175.371,857.05 172.704,855.383 169.5,854.5C 159.976,849.241 150.976,843.241 142.5,836.5C 140.704,834.1 138.37,832.433 135.5,831.5C 133.687,778.318 137.687,725.651 147.5,673.5C 147.709,674.922 148.209,676.255 149,677.5C 166.882,690.903 185.382,703.237 204.5,714.5C 204.973,715.906 205.973,716.573 207.5,716.5C 215.824,722.332 224.491,727.665 233.5,732.5C 233.842,733.338 234.508,733.672 235.5,733.5C 235.842,734.338 236.508,734.672 237.5,734.5C 279.827,759.333 324.494,778.666 371.5,792.5C 373.599,793.612 375.933,794.279 378.5,794.5C 378.833,794.5 379.167,794.5 379.5,794.5C 383.239,796.102 387.239,797.102 391.5,797.5C 396.921,798.19 402.254,799.19 407.5,800.5C 411.267,801.795 415.267,802.461 419.5,802.5C 428.59,804.47 437.923,805.636 447.5,806C 460.34,806.827 473.007,806.66 485.5,805.5C 486.833,805.5 488.167,805.5 489.5,805.5C 498.388,805.217 507.055,804.217 515.5,802.5C 518.096,801.735 520.763,801.401 523.5,801.5C 527.078,801.451 530.411,800.785 533.5,799.5C 546.204,796.758 558.87,793.758 571.5,790.5C 577.335,789.997 582.669,788.33 587.5,785.5C 628.779,771.196 668.113,752.53 705.5,729.5C 705.833,729.5 706.167,729.5 706.5,729.5C 715.844,725.167 724.511,719.833 732.5,713.5C 733.492,713.672 734.158,713.338 734.5,712.5C 735.338,712.158 735.672,711.492 735.5,710.5C 752.245,700.62 768.912,690.453 785.5,680C 788.462,677.713 790.629,674.88 792,671.5C 793.951,664.586 792.118,659.086 786.5,655C 774.281,652.659 761.948,651.493 749.5,651.5C 786.4,640.347 824.066,637.513 862.5,643C 885.346,647.46 907.679,653.627 929.5,661.5 Z"/></g>
<g><path style="opacity:0.149" fill="#556f6a" d="M 8.5,673.5 C 11.1667,675.5 13.5,677.833 15.5,680.5C 12.1667,679.167 9.83333,676.833 8.5,673.5 Z"/></g>
<g><path style="opacity:0.684" fill="#5a887d" d="M 932.5,671.5 C 930.597,674.748 928.263,677.748 925.5,680.5C 921.089,684.92 916.422,688.92 911.5,692.5C 918.167,685.167 925.167,678.167 932.5,671.5 Z"/></g>
<g><path style="opacity:1" fill="#b1b3b4" d="M 341.5,668.5 C 353.781,677.781 365.447,687.781 376.5,698.5C 345.837,701.303 315.171,704.136 284.5,707C 283.263,707.232 282.263,707.732 281.5,708.5C 273.61,703.635 265.777,698.635 258,693.5C 257.501,687.843 257.334,682.176 257.5,676.5C 285.526,674.013 313.526,671.346 341.5,668.5 Z"/></g>
<g><path style="opacity:0.345" fill="#5e847b" d="M 15.5,680.5 C 17.8333,682.167 19.8333,684.167 21.5,686.5C 18.5,685.5 16.5,683.5 15.5,680.5 Z"/></g>
<g><path style="opacity:1" fill="#0a1a42" d="M 457.5,290.5 C 457.833,290.5 458.167,290.5 458.5,290.5C 458.5,328.5 458.5,366.5 458.5,404.5C 458.5,453.5 458.5,502.5 458.5,551.5C 458.5,594.833 458.5,638.167 458.5,681.5C 467.36,682.139 476.36,682.139 485.5,681.5C 485.5,722.833 485.5,764.167 485.5,805.5C 476.167,805.5 466.833,805.5 457.5,805.5C 457.5,633.833 457.5,462.167 457.5,290.5 Z"/></g>
<g><path style="opacity:1" fill="#b1b3b4" d="M 601.5,668.5 C 629.474,671.346 657.474,674.013 685.5,676.5C 685.5,682.167 685.5,687.833 685.5,693.5C 677.5,698.5 669.5,703.5 661.5,708.5C 660.737,707.732 659.737,707.232 658.5,707C 627.829,704.136 597.163,701.303 566.5,698.5C 578.142,688.529 589.808,678.529 601.5,668.5 Z"/></g>
<g><path style="opacity:0.294" fill="#5a7872" d="M 905.5,697.5 C 904.415,699.587 902.749,700.92 900.5,701.5C 901.585,699.413 903.251,698.08 905.5,697.5 Z"/></g>
<g><path style="opacity:1" fill="#43bb9f" d="M 808.5,801.5 C 808.827,811.348 808.494,821.014 807.5,830.5C 808.016,786.375 804.683,742.541 797.5,699C 797.667,697.5 797.833,696 798,694.5C 804.322,729.896 807.822,765.562 808.5,801.5 Z"/></g>
<g><path style="opacity:0.918" fill="#5e8378" d="M 37.5,700.5 C 39.7488,701.08 41.4154,702.413 42.5,704.5C 40.2512,703.92 38.5846,702.587 37.5,700.5 Z"/></g>
<g><path style="opacity:0.941" fill="#5d837a" d="M 42.5,704.5 C 46.3918,706.062 49.7251,708.395 52.5,711.5C 48.6082,709.938 45.2749,707.605 42.5,704.5 Z"/></g>
<g><path style="opacity:1" fill="#abacae" d="M 453.5,691.5 C 453.5,701.167 453.5,710.833 453.5,720.5C 409.295,724.245 365.295,728.578 321.5,733.5C 308.184,725.193 294.851,716.86 281.5,708.5C 282.263,707.732 283.263,707.232 284.5,707C 315.171,704.136 345.837,701.303 376.5,698.5C 383.102,703.095 389.435,708.095 395.5,713.5C 395.56,714.043 395.893,714.376 396.5,714.5C 397.496,708.537 397.829,702.537 397.5,696.5C 416.155,694.713 434.822,693.047 453.5,691.5 Z"/></g>
<g><path style="opacity:1" fill="#abadaf" d="M 546.5,677.5 C 546.333,689.838 546.5,702.171 547,714.5C 547.717,713.956 548.217,713.289 548.5,712.5C 554.786,708.215 560.786,703.549 566.5,698.5C 597.163,701.303 627.829,704.136 658.5,707C 659.737,707.232 660.737,707.732 661.5,708.5C 648.706,717.069 635.706,725.402 622.5,733.5C 578.703,728.578 534.703,724.245 490.5,720.5C 490.333,704.163 490.5,687.83 491,671.5C 509.492,673.59 527.992,675.59 546.5,677.5 Z"/></g>
<g><path style="opacity:1" fill="#4aa18d" d="M 147.5,664.5 C 147.5,667.5 147.5,670.5 147.5,673.5C 137.687,725.651 133.687,778.318 135.5,831.5C 133.528,822.56 132.861,813.227 133.5,803.5C 132.5,802.833 131.5,802.167 130.5,801.5C 131.5,801.5 132.5,801.5 133.5,801.5C 134.024,755.256 138.691,709.589 147.5,664.5 Z"/></g>
<g><path style="opacity:0.925" fill="#5f7f77" d="M 74.5,725.5 C 77.089,725.461 79.089,726.461 80.5,728.5C 78.0301,728.346 76.0301,727.346 74.5,725.5 Z"/></g>
<g><path style="opacity:0.592" fill="#5f7f78" d="M 862.5,726.5 C 860.747,728.223 858.747,729.723 856.5,731C 857.056,731.383 857.389,731.883 857.5,732.5C 856.078,732.291 854.745,731.791 853.5,731C 856.243,728.962 859.243,727.462 862.5,726.5 Z"/></g>
<g><path style="opacity:1" fill="#a4a6a8" d="M 453.5,720.5 C 453.5,735.833 453.5,751.167 453.5,766.5C 431.914,768.933 410.248,771.099 388.5,773C 387.263,773.232 386.263,773.732 385.5,774.5C 363.791,761.319 342.458,747.652 321.5,733.5C 365.295,728.578 409.295,724.245 453.5,720.5 Z"/></g>
<g><path style="opacity:1" fill="#a5a7a9" d="M 490.5,720.5 C 534.703,724.245 578.703,728.578 622.5,733.5C 609.039,742.403 595.372,751.069 581.5,759.5C 580.306,758.223 578.64,757.556 576.5,757.5C 547.832,754.773 519.165,752.106 490.5,749.5C 490.825,756.687 490.491,763.687 489.5,770.5C 489.5,757.167 489.5,743.833 489.5,730.5C 490.479,727.375 490.813,724.042 490.5,720.5 Z"/></g>
<g><path style="opacity:0.693" fill="#5e837b" d="M 80.5,728.5 C 82.5932,729.045 84.5932,729.878 86.5,731C 83.8607,733.483 80.8607,735.316 77.5,736.5C 79.0592,734.376 81.0592,732.709 83.5,731.5C 82.2299,730.712 81.2299,729.712 80.5,728.5 Z"/></g>
<g><path style="opacity:0.431" fill="#5d8179" d="M 857.5,732.5 C 860.198,732.845 862.198,734.178 863.5,736.5C 861.147,735.66 859.147,734.326 857.5,732.5 Z"/></g>
<g><path style="opacity:0.906" fill="#5d847a" d="M 70.5,741.5 C 67.3733,744.898 63.7066,747.565 59.5,749.5C 61.3788,746.885 63.7121,744.719 66.5,743C 67.745,742.209 69.0783,741.709 70.5,741.5 Z"/></g>
<g><path style="opacity:0.914" fill="#5a7871" d="M 59.5,749.5 C 57.0515,752.556 54.0515,754.889 50.5,756.5C 52.9485,753.444 55.9485,751.111 59.5,749.5 Z"/></g>
<g><path style="opacity:0.212" fill="#5b887e" d="M 887.5,754.5 C 891.1,756.43 894.1,759.097 896.5,762.5C 892.9,760.57 889.9,757.903 887.5,754.5 Z"/></g>
<g><path style="opacity:0.976" fill="#637f79" d="M 46.5,760.5 C 45.4154,762.587 43.7488,763.92 41.5,764.5C 42.5846,762.413 44.2512,761.08 46.5,760.5 Z"/></g>
<g><path style="opacity:1" fill="#9a9d9f" d="M 453.5,766.5 C 453.171,779.677 453.505,792.677 454.5,805.5C 455.5,805.5 456.5,805.5 457.5,805.5C 466.833,805.5 476.167,805.5 485.5,805.5C 473.007,806.66 460.34,806.827 447.5,806C 437.923,805.636 428.59,804.47 419.5,802.5C 422.187,802.664 424.854,802.497 427.5,802C 413.595,792.577 399.595,783.41 385.5,774.5C 386.263,773.732 387.263,773.232 388.5,773C 410.248,771.099 431.914,768.933 453.5,766.5 Z"/></g>
<g><path style="opacity:1" fill="#9d9fa1" d="M 581.5,759.5 C 559.5,773.833 537.5,788.167 515.5,802.5C 507.055,804.217 498.388,805.217 489.5,805.5C 489.5,805.167 489.5,804.833 489.5,804.5C 489.5,793.167 489.5,781.833 489.5,770.5C 490.491,763.687 490.825,756.687 490.5,749.5C 519.165,752.106 547.832,754.773 576.5,757.5C 578.64,757.556 580.306,758.223 581.5,759.5 Z"/></g>
<g><path style="opacity:0.078" fill="#56716a" d="M 905.5,770.5 C 907.587,771.585 908.92,773.251 909.5,775.5C 907.413,774.415 906.08,772.749 905.5,770.5 Z"/></g>
<g><path style="opacity:0.835" fill="#5c8f83" d="M 33.5,772.5 C 31.5698,776.1 28.9031,779.1 25.5,781.5C 27.4302,777.9 30.0969,774.9 33.5,772.5 Z"/></g>
<g><path style="opacity:0.824" fill="#5e887e" d="M 911.5,777.5 C 913.914,778.911 915.581,780.911 916.5,783.5C 914.086,782.089 912.419,780.089 911.5,777.5 Z"/></g>
<g><path style="opacity:0.988" fill="#5f857c" d="M 25.5,781.5 C 24.5806,784.089 22.914,786.089 20.5,787.5C 21.4194,784.911 23.086,782.911 25.5,781.5 Z"/></g>
<g><path style="opacity:1" fill="#04163d" d="M 723.5,791.5 C 724.219,793.764 724.552,796.097 724.5,798.5C 720.517,800.806 716.517,803.139 712.5,805.5C 709.626,800.614 705.626,799.447 700.5,802C 697.167,804 693.833,806 690.5,808C 686.072,811.421 685.072,815.421 687.5,820C 695.009,819.96 702.342,818.627 709.5,816C 724.151,812.987 729.651,818.821 726,833.5C 718.658,853.681 704.324,865.348 683,868.5C 674.246,867.425 670.413,862.592 671.5,854C 675.252,851.707 679.086,849.54 683,847.5C 685.615,854.726 690.449,856.892 697.5,854C 706.118,850.386 711.451,844.052 713.5,835C 712.197,831.045 709.531,829.712 705.5,831C 701.616,831.864 697.949,833.03 694.5,834.5C 689.537,835.254 684.537,835.587 679.5,835.5C 672.205,829.968 670.705,822.968 675,814.5C 683.277,800.907 695.11,791.74 710.5,787C 715.941,785.645 720.274,787.145 723.5,791.5 Z"/></g>
<g><path style="opacity:0.992" fill="#5f877e" d="M 916.5,783.5 C 918.587,784.585 919.92,786.251 920.5,788.5C 918.413,787.415 917.08,785.749 916.5,783.5 Z"/></g>
<g><path style="opacity:1" fill="#519c8d" d="M 587.5,785.5 C 582.669,788.33 577.335,789.997 571.5,790.5C 576.617,788.463 581.95,786.796 587.5,785.5 Z"/></g>
<g><path style="opacity:1" fill="#06173d" d="M 243.5,804.5 C 241.372,803.371 239.039,803.204 236.5,804C 235.244,804.417 234.577,805.25 234.5,806.5C 232.468,807.048 231.468,808.381 231.5,810.5C 230.027,813.017 229.36,815.85 229.5,819C 229.731,823.706 230.397,828.206 231.5,832.5C 234.302,844.295 241.302,852.295 252.5,856.5C 253.263,857.268 254.263,857.768 255.5,858C 259.486,858.499 263.486,858.666 267.5,858.5C 267.813,854.958 267.479,851.625 266.5,848.5C 261.919,845.378 256.919,843.044 251.5,841.5C 250.92,837.351 251.586,833.684 253.5,830.5C 261.858,835.01 270.525,839.01 279.5,842.5C 281.433,851.905 282.1,861.572 281.5,871.5C 257.642,874.322 239.142,865.655 226,845.5C 219.875,835.299 216.709,824.299 216.5,812.5C 215.898,792.93 224.898,786.097 243.5,792C 261.885,798.385 274.219,810.719 280.5,829C 276.135,828.494 271.801,827.494 267.5,826C 263.384,814.378 255.384,807.211 243.5,804.5 Z"/></g>
<g><path style="opacity:1" fill="#3b5460" d="M 371.5,792.5 C 374.228,792.171 376.562,792.837 378.5,794.5C 375.933,794.279 373.599,793.612 371.5,792.5 Z"/></g>
<g><path style="opacity:0.831" fill="#5d8178" d="M 920.5,788.5 C 922.587,789.585 923.92,791.251 924.5,793.5C 922.413,792.415 921.08,790.749 920.5,788.5 Z"/></g>
<g><path style="opacity:1" fill="#3e5963" d="M 379.5,794.5 C 383.837,794.584 387.837,795.584 391.5,797.5C 387.239,797.102 383.239,796.102 379.5,794.5 Z"/></g>
<g><path style="opacity:1" fill="#d0e7e4" d="M 723.5,791.5 C 724.993,792.312 725.66,793.645 725.5,795.5C 725.48,796.726 725.147,797.726 724.5,798.5C 724.552,796.097 724.219,793.764 723.5,791.5 Z"/></g>
<g><path style="opacity:0.827" fill="#5c7e76" d="M 130.5,801.5 C 131.5,802.167 132.5,802.833 133.5,803.5C 99.7083,798.284 66.3749,800.45 33.5,810C 22.0464,813.207 10.7131,816.707 -0.5,820.5C -0.5,819.167 -0.5,817.833 -0.5,816.5C 1.5,813.833 3.5,811.167 5.5,808.5C 4.57161,811.523 3.23827,814.357 1.5,817C 1.83333,817.5 2.16667,818 2.5,818.5C 43.7541,801.957 86.4208,796.29 130.5,801.5 Z"/></g>
<g><path style="opacity:1" fill="#374b5e" d="M 414.5,799.5 C 416.368,800.263 418.035,801.263 419.5,802.5C 415.267,802.461 411.267,801.795 407.5,800.5C 410.059,800.802 412.393,800.468 414.5,799.5 Z"/></g>
<g><path style="opacity:1" fill="#66817f" d="M 529.5,799.5 C 530.833,799.5 532.167,799.5 533.5,799.5C 530.411,800.785 527.078,801.451 523.5,801.5C 525.302,800.542 527.302,799.875 529.5,799.5 Z"/></g>
<g><path style="opacity:0.641" fill="#5c8077" d="M 934.5,808.5 C 936.885,810.884 938.885,813.55 940.5,816.5C 940.5,817.833 940.5,819.167 940.5,820.5C 919.023,812.797 897.023,806.964 874.5,803C 852.855,799.834 831.189,799.667 809.5,802.5C 810.14,812.558 809.473,822.225 807.5,831.5C 807.5,831.167 807.5,830.833 807.5,830.5C 808.494,821.014 808.827,811.348 808.5,801.5C 852.951,796.098 895.951,801.765 937.5,818.5C 937.833,818 938.167,817.5 938.5,817C 936.921,814.263 935.588,811.429 934.5,808.5 Z"/></g>
<g><path style="opacity:1" fill="#abc9ca" d="M 243.5,804.5 C 240.246,804.207 237.246,804.874 234.5,806.5C 234.577,805.25 235.244,804.417 236.5,804C 239.039,803.204 241.372,803.371 243.5,804.5 Z"/></g>
<g><path style="opacity:1" fill="#93d3c6" d="M 231.5,810.5 C 231.5,817.833 231.5,825.167 231.5,832.5C 230.397,828.206 229.731,823.706 229.5,819C 229.36,815.85 230.027,813.017 231.5,810.5 Z"/></g>
<g><path style="opacity:1" fill="#05163d" d="M 661.5,836.5 C 661.646,844.196 661.313,851.862 660.5,859.5C 655.426,876.242 644.76,887.909 628.5,894.5C 622.267,896.006 615.934,896.673 609.5,896.5C 601.43,893.748 596.597,888.081 595,879.5C 592.809,845.509 608.642,825.842 642.5,820.5C 652.533,821.539 658.866,826.872 661.5,836.5 Z"/></g>
<g><path style="opacity:1" fill="#04163d" d="M 348.5,898.5 C 343.28,899.969 337.946,900.636 332.5,900.5C 303.108,891.423 289.941,871.423 293,840.5C 297.028,828.064 305.528,823.231 318.5,826C 348.326,833.155 361.826,851.989 359,882.5C 357.727,889.4 354.227,894.734 348.5,898.5 Z"/></g>
<g><path style="opacity:1" fill="#c2d0d4" d="M 253.5,830.5 C 251.586,833.684 250.92,837.351 251.5,841.5C 250.353,837.354 250.186,833.02 251,828.5C 251.995,829.066 252.828,829.733 253.5,830.5 Z"/></g>
<g><path style="opacity:1" fill="#53d3b5" d="M 639.5,834.5 C 644.696,836.18 647.529,839.846 648,845.5C 649.784,860.17 644.951,872.004 633.5,881C 616.571,888.535 608.238,883.035 608.5,864.5C 607.962,853.282 612.296,844.448 621.5,838C 622.745,837.209 624.078,836.709 625.5,836.5C 630.062,835.204 634.729,834.538 639.5,834.5 Z"/></g>
<g><path style="opacity:0.788" fill="#587a73" d="M 135.5,831.5 C 138.37,832.433 140.704,834.1 142.5,836.5C 139.63,835.567 137.296,833.9 135.5,831.5 Z"/></g>
<g><path style="opacity:1" fill="#a2d8cd" d="M 639.5,834.5 C 634.729,834.538 630.062,835.204 625.5,836.5C 629.886,833.569 634.552,832.903 639.5,834.5 Z"/></g>
<g><path style="opacity:1" fill="#ade0d5" d="M 694.5,834.5 C 694.082,835.222 693.416,835.722 692.5,836C 687.98,836.814 683.646,836.647 679.5,835.5C 684.537,835.587 689.537,835.254 694.5,834.5 Z"/></g>
<g><path style="opacity:1" fill="#53d3b5" d="M 335.5,887.5 C 332.14,887.384 328.807,887.051 325.5,886.5C 314.908,883.03 308.741,875.696 307,864.5C 303.388,838.747 312.888,831.913 335.5,844C 346.277,854.616 349.111,867.116 344,881.5C 342.062,884.876 339.229,886.876 335.5,887.5 Z"/></g>
<g><path style="opacity:1" fill="#90e2d0" d="M 279.5,842.5 C 280.5,842.5 281.5,842.5 282.5,842.5C 282.827,852.348 282.494,862.014 281.5,871.5C 282.1,861.572 281.433,851.905 279.5,842.5 Z"/></g>
<g><path style="opacity:1" fill="#f7fafa" d="M 374.5,843.5 C 373.168,854.146 372.501,865.146 372.5,876.5C 372.51,887.907 372.844,899.24 373.5,910.5C 371.51,888.191 370.844,865.525 371.5,842.5C 372.791,842.263 373.791,842.596 374.5,843.5 Z"/></g>
<g><path style="opacity:1" fill="#04153c" d="M 374.5,843.5 C 376.265,844.461 378.265,844.795 380.5,844.5C 381.641,845.339 382.974,846.006 384.5,846.5C 385.5,865.155 385.833,883.821 385.5,902.5C 387.5,902.5 389.5,902.5 391.5,902.5C 392.167,902.5 392.833,902.5 393.5,902.5C 399.543,904.508 405.876,905.508 412.5,905.5C 415.228,906.205 418.061,906.872 421,907.5C 421.498,910.817 421.665,914.15 421.5,917.5C 420.5,917.5 419.5,917.5 418.5,917.5C 403.551,915.065 388.551,912.731 373.5,910.5C 372.844,899.24 372.51,887.907 372.5,876.5C 372.501,865.146 373.168,854.146 374.5,843.5 Z"/></g>
<g><path style="opacity:1" fill="#06173e" d="M 582.5,853.5 C 582.818,858.659 582.152,863.659 580.5,868.5C 576.549,874.267 571.216,878.434 564.5,881C 567.167,882.667 569.833,884.333 572.5,886C 578.209,892.04 583.543,898.374 588.5,905C 582.858,906.498 577.192,907.498 571.5,908C 566.973,903.108 562.807,897.941 559,892.5C 557.223,890.21 555.056,888.543 552.5,887.5C 548.366,886.515 544.032,886.182 539.5,886.5C 539.666,895.839 539.5,905.173 539,914.5C 536.393,915.123 533.893,915.79 531.5,916.5C 529.5,916.5 527.5,916.5 525.5,916.5C 525.333,894.831 525.5,873.164 526,851.5C 527.622,850.901 529.122,850.234 530.5,849.5C 540.902,848.514 551.236,847.014 561.5,845C 566.167,844.333 570.833,844.333 575.5,845C 579.119,846.785 581.452,849.618 582.5,853.5 Z"/></g>
<g><path style="opacity:1" fill="#a1b4bc" d="M 380.5,844.5 C 382.467,844.261 384.301,844.594 386,845.5C 386.333,863.833 386.667,882.167 387,900.5C 388.622,901.099 390.122,901.766 391.5,902.5C 389.5,902.5 387.5,902.5 385.5,902.5C 385.833,883.821 385.5,865.155 384.5,846.5C 382.974,846.006 381.641,845.339 380.5,844.5 Z"/></g>
<g><path style="opacity:1" fill="#b0ded7" d="M 530.5,849.5 C 529.122,850.234 527.622,850.901 526,851.5C 525.5,873.164 525.333,894.831 525.5,916.5C 527.5,916.5 529.5,916.5 531.5,916.5C 529.393,917.468 527.059,917.802 524.5,917.5C 524.5,894.833 524.5,872.167 524.5,849.5C 526.5,849.5 528.5,849.5 530.5,849.5 Z"/></g>
<g><path style="opacity:1" fill="#b5dfd9" d="M 506.5,852.5 C 508.265,851.539 510.265,851.205 512.5,851.5C 512.5,874.167 512.5,896.833 512.5,919.5C 509.5,919.5 506.5,919.5 503.5,919.5C 503.5,919.167 503.5,918.833 503.5,918.5C 506.167,918.5 508.833,918.5 511.5,918.5C 511.5,896.5 511.5,874.5 511.5,852.5C 509.833,852.5 508.167,852.5 506.5,852.5 Z"/></g>
<g><path style="opacity:1" fill="#f0f4f5" d="M 432.5,852.5 C 432.5,874.5 432.5,896.5 432.5,918.5C 433.791,918.263 434.791,918.596 435.5,919.5C 434.167,919.5 432.833,919.5 431.5,919.5C 431.167,896.425 431.501,874.091 432.5,852.5 Z"/></g>
<g><path style="opacity:1" fill="#04153c" d="M 432.5,852.5 C 441.113,853.442 449.779,853.775 458.5,853.5C 466.65,854.493 474.983,854.826 483.5,854.5C 483.5,857.833 483.5,861.167 483.5,864.5C 471.167,864.5 458.833,864.5 446.5,864.5C 445.512,869.64 445.179,874.974 445.5,880.5C 451.167,880.5 456.833,880.5 462.5,880.5C 468.833,880.5 475.167,880.5 481.5,880.5C 481.5,883.833 481.5,887.167 481.5,890.5C 469.5,890.5 457.5,890.5 445.5,890.5C 445.5,896.833 445.5,903.167 445.5,909.5C 458.833,909.5 472.167,909.5 485.5,909.5C 485.5,912.833 485.5,916.167 485.5,919.5C 470.833,919.5 456.167,919.5 441.5,919.5C 439.5,919.5 437.5,919.5 435.5,919.5C 434.791,918.596 433.791,918.263 432.5,918.5C 432.5,896.5 432.5,874.5 432.5,852.5 Z"/></g>
<g><path style="opacity:1" fill="#b7c5cc" d="M 458.5,853.5 C 467.167,853.5 475.833,853.5 484.5,853.5C 484.5,857.5 484.5,861.5 484.5,865.5C 471.833,865.5 459.167,865.5 446.5,865.5C 446.5,865.167 446.5,864.833 446.5,864.5C 458.833,864.5 471.167,864.5 483.5,864.5C 483.5,861.167 483.5,857.833 483.5,854.5C 474.983,854.826 466.65,854.493 458.5,853.5 Z"/></g>
<g><path style="opacity:1" fill="#a7ded4" d="M 504.5,852.5 C 502.735,853.461 500.735,853.795 498.5,853.5C 497.503,875.327 497.169,897.327 497.5,919.5C 498.833,919.5 500.167,919.5 501.5,919.5C 500.081,920.451 498.415,920.784 496.5,920.5C 496.5,897.833 496.5,875.167 496.5,852.5C 499.167,852.5 501.833,852.5 504.5,852.5 Z"/></g>
<g><path style="opacity:1" fill="#05173d" d="M 504.5,852.5 C 505.167,852.5 505.833,852.5 506.5,852.5C 508.167,852.5 509.833,852.5 511.5,852.5C 511.5,874.5 511.5,896.5 511.5,918.5C 508.833,918.5 506.167,918.5 503.5,918.5C 501.833,918.5 500.167,918.5 498.5,918.5C 498.5,896.833 498.5,875.167 498.5,853.5C 500.735,853.795 502.735,853.461 504.5,852.5 Z"/></g>
<g><path style="opacity:0.659" fill="#5d7f77" d="M 169.5,854.5 C 172.704,855.383 175.371,857.05 177.5,859.5C 174.296,858.617 171.629,856.95 169.5,854.5 Z"/></g>
<g><path style="opacity:1" fill="#424f6c" d="M 498.5,853.5 C 498.5,875.167 498.5,896.833 498.5,918.5C 500.167,918.5 501.833,918.5 503.5,918.5C 503.5,918.833 503.5,919.167 503.5,919.5C 502.833,919.5 502.167,919.5 501.5,919.5C 500.167,919.5 498.833,919.5 497.5,919.5C 497.169,897.327 497.503,875.327 498.5,853.5 Z"/></g>
<g><path style="opacity:0.549" fill="#5d8079" d="M 779.5,850.5 C 776.35,853.579 772.683,855.913 768.5,857.5C 771.65,854.421 775.317,852.087 779.5,850.5 Z"/></g>
<g><path style="opacity:1" fill="#5bd4b7" d="M 546.5,875.5 C 544.5,875.5 542.5,875.5 540.5,875.5C 540.5,870.167 540.5,864.833 540.5,859.5C 548.227,857.126 556.227,855.96 564.5,856C 565.931,856.465 567.097,857.299 568,858.5C 569.332,863.553 568.165,867.886 564.5,871.5C 558.702,873.783 552.702,875.116 546.5,875.5 Z"/></g>
<g><path style="opacity:1" fill="#bfe1dc" d="M 266.5,848.5 C 267.479,851.625 267.813,854.958 267.5,858.5C 263.486,858.666 259.486,858.499 255.5,858C 254.263,857.768 253.263,857.268 252.5,856.5C 257.13,857.229 261.797,857.563 266.5,857.5C 266.5,854.5 266.5,851.5 266.5,848.5 Z"/></g>
<g><path style="opacity:1" fill="#b5c8cd" d="M 661.5,836.5 C 662.165,839.482 662.498,842.648 662.5,846C 662.692,850.772 662.025,855.272 660.5,859.5C 661.313,851.862 661.646,844.196 661.5,836.5 Z"/></g>
<g><path style="opacity:0.357" fill="#5c847b" d="M 768.5,857.5 C 766.371,859.95 763.704,861.617 760.5,862.5C 762.629,860.05 765.296,858.383 768.5,857.5 Z"/></g>
<g><path style="opacity:1" fill="#b1dfd7" d="M 540.5,859.5 C 540.5,864.833 540.5,870.167 540.5,875.5C 542.5,875.5 544.5,875.5 546.5,875.5C 544.444,876.216 542.277,876.883 540,877.5C 539.181,871.319 539.347,865.319 540.5,859.5 Z"/></g>
<g><path style="opacity:0.765" fill="#5a7c74" d="M 180.5,861.5 C 183.704,862.383 186.371,864.05 188.5,866.5C 185.296,865.617 182.629,863.95 180.5,861.5 Z"/></g>
<g><path style="opacity:1" fill="#98a6b3" d="M 446.5,864.5 C 446.5,864.833 446.5,865.167 446.5,865.5C 446.5,870.167 446.5,874.833 446.5,879.5C 451.833,879.5 457.167,879.5 462.5,879.5C 462.5,879.833 462.5,880.167 462.5,880.5C 456.833,880.5 451.167,880.5 445.5,880.5C 445.179,874.974 445.512,869.64 446.5,864.5 Z"/></g>
<g><path style="opacity:1" fill="#a2d9ce" d="M 582.5,853.5 C 583.645,857.311 583.812,861.311 583,865.5C 582.764,867.119 581.931,868.119 580.5,868.5C 582.152,863.659 582.818,858.659 582.5,853.5 Z"/></g>
<g><path style="opacity:0.831" fill="#597d75" d="M 193.5,869.5 C 196.704,870.383 199.371,872.05 201.5,874.5C 198.296,873.617 195.629,871.95 193.5,869.5 Z"/></g>
<g><path style="opacity:0.149" fill="#5c8179" d="M 747.5,870.5 C 743.005,874.251 738.005,877.251 732.5,879.5C 736.995,875.749 741.995,872.749 747.5,870.5 Z"/></g>
<g><path style="opacity:0.902" fill="#5a7b73" d="M 201.5,874.5 C 204.331,875.079 206.664,876.412 208.5,878.5C 205.669,877.921 203.336,876.588 201.5,874.5 Z"/></g>
<g><path style="opacity:0.684" fill="#5f7f77" d="M 213.5,881.5 C 216.331,882.079 218.664,883.412 220.5,885.5C 217.669,884.921 215.336,883.588 213.5,881.5 Z"/></g>
<g><path style="opacity:0.647" fill="#5b847b" d="M 727.5,882.5 C 725.664,884.588 723.331,885.921 720.5,886.5C 722.336,884.412 724.669,883.079 727.5,882.5 Z"/></g>
<g><path style="opacity:0.694" fill="#607e77" d="M 220.5,885.5 C 223.331,886.079 225.664,887.412 227.5,889.5C 224.669,888.921 222.336,887.588 220.5,885.5 Z"/></g>
<g><path style="opacity:1" fill="#b7cdcf" d="M 325.5,886.5 C 328.807,887.051 332.14,887.384 335.5,887.5C 334.378,888.156 333.045,888.489 331.5,888.5C 329.117,888.639 327.117,887.972 325.5,886.5 Z"/></g>
<g><path style="opacity:1" fill="#aadad2" d="M 552.5,887.5 C 548.5,887.5 544.5,887.5 540.5,887.5C 540.5,897.167 540.5,906.833 540.5,916.5C 537.5,916.5 534.5,916.5 531.5,916.5C 533.893,915.79 536.393,915.123 539,914.5C 539.5,905.173 539.666,895.839 539.5,886.5C 544.032,886.182 548.366,886.515 552.5,887.5 Z"/></g>
<g><path style="opacity:0.863" fill="#5e837a" d="M 720.5,886.5 C 717.992,888.924 714.992,890.59 711.5,891.5C 714.008,889.076 717.008,887.41 720.5,886.5 Z"/></g>
<g><path style="opacity:0.706" fill="#5e8079" d="M 229.5,890.5 C 232.992,891.41 235.992,893.076 238.5,895.5C 235.008,894.59 232.008,892.924 229.5,890.5 Z"/></g>
<g><path style="opacity:1" fill="#bbd0d3" d="M 462.5,880.5 C 462.5,880.167 462.5,879.833 462.5,879.5C 469.167,879.5 475.833,879.5 482.5,879.5C 482.5,883.5 482.5,887.5 482.5,891.5C 470.5,891.5 458.5,891.5 446.5,891.5C 446.5,897.167 446.5,902.833 446.5,908.5C 459.833,908.5 473.167,908.5 486.5,908.5C 486.5,912.5 486.5,916.5 486.5,920.5C 471.324,920.829 456.324,920.496 441.5,919.5C 456.167,919.5 470.833,919.5 485.5,919.5C 485.5,916.167 485.5,912.833 485.5,909.5C 472.167,909.5 458.833,909.5 445.5,909.5C 445.5,903.167 445.5,896.833 445.5,890.5C 457.5,890.5 469.5,890.5 481.5,890.5C 481.5,887.167 481.5,883.833 481.5,880.5C 475.167,880.5 468.833,880.5 462.5,880.5 Z"/></g>
<g><path style="opacity:0.796" fill="#5d847b" d="M 711.5,891.5 C 708.322,894.258 704.655,896.258 700.5,897.5C 703.678,894.742 707.345,892.742 711.5,891.5 Z"/></g>
<g><path style="opacity:1" fill="#b8d9d6" d="M 628.5,894.5 C 626.524,896.011 624.191,896.844 621.5,897C 617.311,897.812 613.311,897.645 609.5,896.5C 615.934,896.673 622.267,896.006 628.5,894.5 Z"/></g>
<g><path style="opacity:1" fill="#aee1d7" d="M 348.5,898.5 C 346.974,900.13 344.974,900.963 342.5,901C 338.973,901.808 335.64,901.641 332.5,900.5C 337.946,900.636 343.28,899.969 348.5,898.5 Z"/></g>
<g><path style="opacity:0.824" fill="#5e8179" d="M 240.5,896.5 C 253.484,902.325 266.151,908.659 278.5,915.5C 265.248,910.207 252.581,903.874 240.5,896.5 Z"/></g>
<g><path style="opacity:1" fill="#a2d0cb" d="M 393.5,902.5 C 400.098,902.625 406.431,903.625 412.5,905.5C 405.876,905.508 399.543,904.508 393.5,902.5 Z"/></g>
<g><path style="opacity:1" fill="#b9e0da" d="M 412.5,905.5 C 415.833,905.5 419.167,905.5 422.5,905.5C 422.5,909.833 422.5,914.167 422.5,918.5C 420.901,918.768 419.568,918.434 418.5,917.5C 419.5,917.5 420.5,917.5 421.5,917.5C 421.665,914.15 421.498,910.817 421,907.5C 418.061,906.872 415.228,906.205 412.5,905.5 Z"/></g>
<g><path style="opacity:0.671" fill="#5d7c74" d="M 698.5,898.5 C 689.086,904.541 679.086,909.541 668.5,913.5C 678.182,907.992 688.182,902.992 698.5,898.5 Z"/></g>
<g><path style="opacity:0.286" fill="#5e8179" d="M 668.5,913.5 C 664.584,916.29 660.251,918.29 655.5,919.5C 659.416,916.71 663.749,914.71 668.5,913.5 Z"/></g>
<g><path style="opacity:0.741" fill="#5e7e77" d="M 280.5,916.5 C 283.912,917.042 286.912,918.375 289.5,920.5C 286.088,919.958 283.088,918.625 280.5,916.5 Z"/></g>
<g><path style="opacity:0.71" fill="#5d7c75" d="M 289.5,920.5 C 294.478,921.932 299.144,923.932 303.5,926.5C 298.358,925.458 293.691,923.458 289.5,920.5 Z"/></g>
<g><path style="opacity:0.549" fill="#5b7570" d="M 303.5,926.5 C 307.137,927.263 310.47,928.597 313.5,930.5C 309.703,930.128 306.37,928.794 303.5,926.5 Z"/></g>
<g><path style="opacity:0.483" fill="#5d7973" d="M 655.5,919.5 C 603.506,944.165 548.839,958.832 491.5,963.5C 478.167,963.5 464.833,963.5 451.5,963.5C 403.709,960.052 357.709,949.052 313.5,930.5C 325.761,934.754 338.095,938.921 350.5,943C 417.285,964.676 484.951,968.01 553.5,953C 588.506,944.72 622.506,933.553 655.5,919.5 Z"/></g>
</svg>
